<?xml version="1.0" encoding="utf-8"?><svg xml:space="preserve" viewBox="0 0 100 100" y="0" x="0" xmlns="http://www.w3.org/2000/svg" id="圖層_1" version="1.1" width="200px" height="200px" xmlns:xlink="http://www.w3.org/1999/xlink" style="width:100%;height:100%;background-size:initial;background-repeat-y:initial;background-repeat-x:initial;background-position-y:initial;background-position-x:initial;background-origin:initial;background-color:initial;background-clip:initial;background-attachment:initial;animation-play-state:paused" ><g class="ldl-scale" style="transform-origin:50% 50%;transform:rotate(0deg) scale(1, 1);animation-play-state:paused" ><path fill="#d1d1d1" d="M54.167 8.377c4.437 0 8.048 3.611 8.048 8.048v17.5c0 .456.385.841.841.841h10.097c3.828 0 5.153 2.201 5.545 3.148.392.946 1.012 3.44-1.695 6.147L55.691 65.372A7.992 7.992 0 0 1 50 67.723a7.996 7.996 0 0 1-5.691-2.351L22.998 44.06c-2.707-2.707-2.087-5.2-1.695-6.147.392-.946 1.717-3.148 5.545-3.148h10.097a.852.852 0 0 0 .841-.841v-17.5c0-4.437 3.61-8.048 8.048-8.048l8.333.001z" style="fill:rgb(180, 180, 180);animation-play-state:paused" ></path>
<g style="animation-play-state:paused" ><path fill="#d1d1d1" d="M16.347 91.623c-4.878 0-8.847-3.969-8.847-8.847V61.927c0-4.878 3.968-8.847 8.847-8.847s8.847 3.969 8.847 8.847V73.93h49.613V61.927c0-4.878 3.969-8.847 8.847-8.847s8.847 3.969 8.847 8.847v20.849c0 4.878-3.968 8.847-8.847 8.847H16.347z" style="fill:rgb(180, 180, 180);animation-play-state:paused" ></path></g>
<path fill="#464646" d="M63.055 38.369c-2.444 0-4.445-2-4.445-4.445v-17.5c0-2.444-2-4.444-4.444-4.444h-8.334c-2.444 0-4.444 2-4.444 4.444v17.5c0 2.444-2 4.445-4.445 4.445H26.847c-2.444 0-3.03 1.414-1.301 3.143l21.311 21.311a4.46 4.46 0 0 0 6.286 0l21.311-21.311c1.728-1.728 1.143-3.143-1.302-3.143H63.055z" style="fill:rgb(33, 33, 33);animation-play-state:paused" ></path>
<g style="animation-play-state:paused" ><path fill="#464646" d="M83.653 88.02H16.347a5.244 5.244 0 0 1-5.243-5.243v-20.85a5.244 5.244 0 0 1 10.486 0v15.607h56.82V61.927a5.244 5.244 0 0 1 10.486 0v20.849a5.243 5.243 0 0 1-5.243 5.244z" style="fill:rgb(33, 33, 33);animation-play-state:paused" ></path></g>
<metadata xmlns:d="https://loading.io/stock/" style="animation-play-state:paused" ><d:name style="animation-play-state:paused" >download</d:name>
<d:tags style="animation-play-state:paused" >save,keep,get,retrieve,input,store,download,map</d:tags>
<d:license style="animation-play-state:paused" >free</d:license>
<d:slug style="animation-play-state:paused" >c21wuk</d:slug></metadata></g><!-- generated by https://loading.io/ --></svg>